<svg width="121" height="128" viewBox="0 0 121 128" fill="none" xmlns="http://www.w3.org/2000/svg">
<path d="M60.5 0.144451C52.0954 0.144451 44.4031 4.82853 40.5778 12.3054V12.311L40.5665 12.3223C29.7787 33.2711 20.5129 51.5698 13.7515 65.2302C10.3697 72.0627 7.6133 77.7306 5.59538 82.0219C3.57745 86.3133 2.40982 88.7753 1.72599 90.9565L1.72035 90.9734L1.71471 90.9847C0.974616 93.3862 2.88813e-07 96.5983 0 100.387C-1.79052e-05 115.136 12.1168 127.214 26.8826 127.214C43.6209 127.214 55.1144 113.871 60.5 107.709C65.8825 113.867 77.3773 127.214 94.1174 127.214C108.883 127.214 121 115.134 121 100.387C121 96.6036 120.024 93.3966 119.291 91.0073L119.285 90.9903L119.28 90.9734C118.596 88.7952 117.423 86.3263 115.405 82.0332C113.386 77.7401 110.631 72.0698 107.248 65.2358C100.486 51.5738 91.2174 33.2746 80.4279 12.3223L80.4166 12.2997C76.5952 4.82731 68.903 0.144451 60.5 0.144451ZM60.5 11.6962C64.8358 11.6962 68.1927 13.7502 70.1396 17.568L70.1453 17.5792L70.1509 17.5905C80.9255 38.5136 90.1695 56.7747 96.8925 70.3574C100.254 77.1487 102.989 82.7763 104.953 86.9517C106.912 91.1181 108.205 94.2665 108.252 94.4141C108.92 96.5928 109.448 98.7467 109.448 100.387C109.448 108.849 102.634 115.662 94.1174 115.662C83.7721 115.662 72.8852 104.471 67.9342 98.8588L67.9229 98.8476L67.906 98.8306C73.2485 92.1853 82.1595 80.4726 82.1595 67.3905C82.1595 55.7134 72.2692 46.3514 60.5 46.3514C48.7308 46.3514 38.8405 55.7134 38.8405 67.3905C38.8405 80.4918 47.7518 92.1971 53.0884 98.8306L53.0771 98.8419L53.0658 98.8588C48.1117 104.474 37.2279 115.662 26.8826 115.662C18.3659 115.662 11.5517 108.852 11.5517 100.387C11.5517 98.7376 12.0771 96.5937 12.7475 94.4141C12.7871 94.2878 14.0903 91.114 16.0529 86.9405C18.0154 82.7669 20.7467 77.1416 24.1075 70.3517C30.829 56.772 40.0718 38.5135 50.8435 17.5962L50.8491 17.5849L50.8547 17.5792C52.8082 13.7519 56.1642 11.6962 60.5 11.6962ZM60.5 57.9032C66.249 57.9032 70.6078 62.2309 70.6078 67.3905C70.6078 73.5678 65.0546 82.8271 60.4944 89.0895C55.9388 82.8383 50.3922 73.5986 50.3922 67.3905C50.3922 62.2309 54.751 57.9032 60.5 57.9032Z" fill="white" fill-opacity="0.6"/>
</svg>
