<svg width="141" height="271" viewBox="0 0 141 271" fill="none" xmlns="http://www.w3.org/2000/svg">
<circle cx="15" cy="5" r="5" fill="#0047FF" fill-opacity="0.27"/>
<circle cx="15.5" cy="31.5" r="5.5" fill="#0047FF" fill-opacity="0.27"/>
<circle cx="15.5" cy="57.5" r="5.5" fill="#0047FF" fill-opacity="0.27"/>
<circle cx="15.5" cy="83.5" r="5.5" fill="#0047FF" fill-opacity="0.27"/>
<circle cx="15.5" cy="109.5" r="5.5" fill="#0047FF" fill-opacity="0.27"/>
<circle cx="15.5" cy="135.5" r="5.5" fill="#0047FF" fill-opacity="0.27"/>
<circle cx="15.5" cy="161.5" r="5.5" fill="#0047FF" fill-opacity="0.27"/>
<circle cx="15.5" cy="187.5" r="5.5" fill="#0047FF" fill-opacity="0.27"/>
<circle cx="15.5" cy="213.5" r="5.5" fill="#0047FF" fill-opacity="0.27"/>
<circle cx="15.5" cy="239.5" r="5.5" fill="#0047FF" fill-opacity="0.27"/>
<circle cx="15.5" cy="265.5" r="5.5" fill="#0047FF" fill-opacity="0.27"/>
<circle cx="45" cy="5" r="5" fill="#0047FF" fill-opacity="0.27"/>
<circle cx="45.5" cy="31.5" r="5.5" fill="#0047FF" fill-opacity="0.27"/>
<circle cx="45.5" cy="57.5" r="5.5" fill="#0047FF" fill-opacity="0.27"/>
<circle cx="45.5" cy="83.5" r="5.5" fill="#0047FF" fill-opacity="0.27"/>
<circle cx="45.5" cy="109.5" r="5.5" fill="#0047FF" fill-opacity="0.27"/>
<circle cx="45.5" cy="135.5" r="5.5" fill="#0047FF" fill-opacity="0.27"/>
<circle cx="45.5" cy="161.5" r="5.5" fill="#0047FF" fill-opacity="0.27"/>
<circle cx="45.5" cy="187.5" r="5.5" fill="#0047FF" fill-opacity="0.27"/>
<circle cx="45.5" cy="213.5" r="5.5" fill="#0047FF" fill-opacity="0.27"/>
<circle cx="45.5" cy="239.5" r="5.5" fill="#0047FF" fill-opacity="0.27"/>
<circle cx="45.5" cy="265.5" r="5.5" fill="#0047FF" fill-opacity="0.27"/>
<circle cx="75" cy="5" r="5" fill="#0047FF" fill-opacity="0.27"/>
<circle cx="75.5" cy="31.5" r="5.5" fill="#0047FF" fill-opacity="0.27"/>
<circle cx="75.5" cy="57.5" r="5.5" fill="#0047FF" fill-opacity="0.27"/>
<circle cx="75.5" cy="83.5" r="5.5" fill="#0047FF" fill-opacity="0.27"/>
<circle cx="75.5" cy="109.5" r="5.5" fill="#0047FF" fill-opacity="0.27"/>
<circle cx="75.5" cy="135.5" r="5.5" fill="#0047FF" fill-opacity="0.27"/>
<circle cx="75.5" cy="161.5" r="5.5" fill="#0047FF" fill-opacity="0.27"/>
<circle cx="75.5" cy="187.5" r="5.5" fill="#0047FF" fill-opacity="0.27"/>
<circle cx="75.5" cy="213.5" r="5.5" fill="#0047FF" fill-opacity="0.27"/>
<circle cx="75.5" cy="239.5" r="5.5" fill="#0047FF" fill-opacity="0.27"/>
<circle cx="75.5" cy="265.5" r="5.5" fill="#0047FF" fill-opacity="0.27"/>
<circle cx="105" cy="5" r="5" fill="#0047FF" fill-opacity="0.27"/>
<circle cx="105.5" cy="31.5" r="5.5" fill="#0047FF" fill-opacity="0.27"/>
<circle cx="105.5" cy="57.5" r="5.5" fill="#0047FF" fill-opacity="0.27"/>
<circle cx="105.5" cy="83.5" r="5.5" fill="#0047FF" fill-opacity="0.27"/>
<circle cx="105.5" cy="109.5" r="5.5" fill="#0047FF" fill-opacity="0.27"/>
<circle cx="105.5" cy="135.5" r="5.5" fill="#0047FF" fill-opacity="0.27"/>
<circle cx="105.5" cy="161.5" r="5.5" fill="#0047FF" fill-opacity="0.27"/>
<circle cx="105.5" cy="187.5" r="5.5" fill="#0047FF" fill-opacity="0.27"/>
<circle cx="105.5" cy="213.5" r="5.5" fill="#0047FF" fill-opacity="0.27"/>
<circle cx="105.5" cy="239.5" r="5.5" fill="#0047FF" fill-opacity="0.27"/>
<circle cx="105.5" cy="265.5" r="5.5" fill="#0047FF" fill-opacity="0.27"/>
<circle cx="135" cy="5" r="5" fill="#0047FF" fill-opacity="0.27"/>
<circle cx="135.5" cy="31.5" r="5.5" fill="#0047FF" fill-opacity="0.27"/>
<circle cx="135.5" cy="57.5" r="5.5" fill="#0047FF" fill-opacity="0.27"/>
<circle cx="135.5" cy="83.5" r="5.5" fill="#0047FF" fill-opacity="0.27"/>
<circle cx="135.5" cy="109.5" r="5.5" fill="#0047FF" fill-opacity="0.27"/>
<circle cx="135.5" cy="135.5" r="5.5" fill="#0047FF" fill-opacity="0.27"/>
<circle cx="135.5" cy="161.5" r="5.5" fill="#0047FF" fill-opacity="0.27"/>
<circle cx="135.5" cy="187.5" r="5.5" fill="#0047FF" fill-opacity="0.27"/>
<circle cx="135.5" cy="213.5" r="5.5" fill="#0047FF" fill-opacity="0.27"/>
<circle cx="135.5" cy="239.5" r="5.5" fill="#0047FF" fill-opacity="0.27"/>
<circle cx="135.5" cy="265.5" r="5.5" fill="#0047FF" fill-opacity="0.27"/>
</svg>
