<svg width="111" height="36" viewBox="0 0 111 36" fill="none" xmlns="http://www.w3.org/2000/svg">
<path d="M55.5 0.335293V14.0341H55.2222C53.5572 12.0396 51.4949 11.3513 49.0842 11.3513C44.1585 11.3513 40.4462 14.8709 39.1454 19.4947C36.0235 8.71731 22.2501 9.04191 18.0009 16.9541V12.564H8.49573V7.80801H18.902V0.355618H0V33.8033H8.49573V19.7454H16.9779C16.7177 20.7791 16.5782 21.8895 16.5782 23.0515C16.5782 36.3126 34.3721 39.6262 39.1589 27.3468H31.8759C29.3264 31.1382 23.9357 28.9609 23.9357 24.6978H38.766C39.4077 30.2305 43.5144 35.0228 49.1858 35.0228C51.6313 35.0228 53.8724 33.7718 55.2426 31.6489H55.3239V33.8033H92.1319L95.9597 29.2709L99.8282 33.8033H111L101.637 22.828L110.878 11.961H100.059L96.2917 16.4663L92.3893 11.9678H71.8004V9.06137H81.5359V0.335293H55.5ZM63.4944 1.95449H79.9709V7.42862H70.2422V13.5802H79.8693V18.675H70.1406V26.7913H79.8693V32.157H63.4944V1.95449ZM81.6376 12.5301L90.4314 22.8686L81.6376 33.2071V24.935H71.9088V20.511H81.6376V12.5301ZM84.8082 13.5802H91.6983L96.312 18.8918L100.75 13.5802H107.43L99.5504 22.828L107.531 32.157H100.506L95.9462 26.8048L91.4205 32.157H84.8082L92.7213 22.8686L84.8082 13.5802ZM28.2784 16.2902C30.0583 16.3062 31.8052 17.4976 32.2214 19.8199H24.1593C24.6883 17.4334 26.4985 16.2741 28.2784 16.2902ZM50.7643 17.2996C56.4184 17.2996 56.7479 28.695 50.7643 28.695C44.7634 28.695 44.8675 17.2996 50.7643 17.2996Z" fill="white" fill-opacity="0.6"/>
</svg>
