<svg width="23" height="23" viewBox="0 0 23 23" fill="none" xmlns="http://www.w3.org/2000/svg">
<path d="M11.5 8.04999C9.594 8.04999 8.04999 9.59456 8.04999 11.5C8.04999 13.4059 9.59458 14.95 11.5 14.95C13.4059 14.95 14.95 13.4054 14.95 11.5C14.95 9.5941 13.4054 8.04999 11.5 8.04999ZM11.5 5.75C14.6745 5.75 17.25 8.32266 17.25 11.5C17.25 14.6746 14.6773 17.25 11.5 17.25C8.32545 17.25 5.74999 14.6773 5.74999 11.5C5.74999 8.32545 8.32266 5.75 11.5 5.75ZM18.975 5.46152C18.975 6.25514 18.3301 6.89904 17.5375 6.89904C16.7439 6.89904 16.1 6.25415 16.1 5.46152C16.1 4.66888 16.7448 4.025 17.5375 4.025C18.3291 4.024 18.975 4.66888 18.975 5.46152ZM11.5 2.3C8.65434 2.3 8.19052 2.30753 6.86698 2.36647C5.96524 2.4088 5.36078 2.53008 4.79915 2.74812C4.30005 2.94169 3.94002 3.17282 3.55642 3.55643C3.17134 3.94151 2.94062 4.30057 2.74783 4.7999C2.52928 5.36281 2.40804 5.96632 2.36647 6.86682C2.30696 8.13647 2.3 8.5802 2.3 11.5C2.3 14.3457 2.30753 14.8095 2.36646 16.1329C2.40881 17.0342 2.53025 17.6396 2.74776 18.1999C2.94184 18.6997 3.17345 19.0605 3.5552 19.4423C3.94179 19.8284 4.30193 20.0599 4.79652 20.2508C5.36499 20.4706 5.96907 20.592 6.8668 20.6335C8.13647 20.693 8.5802 20.7 11.5 20.7C14.3457 20.7 14.8095 20.6924 16.1329 20.6335C17.0323 20.5913 17.6381 20.4695 18.1999 20.2522C18.6983 20.0586 19.0603 19.8262 19.4424 19.4448C19.829 19.0576 20.06 18.6983 20.2512 18.2025C20.4703 17.6362 20.592 17.0313 20.6335 16.1332C20.693 14.8635 20.7 14.4197 20.7 11.5C20.7 8.65434 20.6924 8.19053 20.6335 6.86707C20.5912 5.96741 20.4694 5.36071 20.2518 4.79915C20.0588 4.30143 19.8268 3.9403 19.4435 3.55643C19.0578 3.17072 18.6997 2.94047 18.2 2.74783C17.6376 2.52947 17.0331 2.40805 16.1331 2.36648C14.8635 2.30696 14.4197 2.3 11.5 2.3ZM11.5 0C14.6241 0 15.0142 0.0114999 16.2409 0.0689999C17.4646 0.125545 18.2994 0.319125 19.0325 0.60375C19.7905 0.896045 20.4307 1.29087 21.0698 1.93008C21.7081 2.56929 22.103 3.21137 22.3963 3.9675C22.6798 4.69967 22.8735 5.53533 22.931 6.75912C22.9856 7.98579 23 8.37582 23 11.5C23 14.6242 22.9885 15.0142 22.931 16.2409C22.8744 17.4647 22.6798 18.2994 22.3963 19.0325C22.1039 19.7906 21.7081 20.4307 21.0698 21.0699C20.4307 21.7082 19.7876 22.103 19.0325 22.3962C18.2994 22.6799 17.4646 22.8735 16.2409 22.931C15.0142 22.9856 14.6241 23 11.5 23C8.37582 23 7.98578 22.9885 6.75912 22.931C5.53532 22.8744 4.70158 22.6799 3.9675 22.3962C3.21041 22.1039 2.56928 21.7082 1.93008 21.0699C1.29087 20.4307 0.896999 19.7877 0.60375 19.0325C0.319125 18.2994 0.1265 17.4647 0.0690001 16.2409C0.0143752 15.0142 0 14.6242 0 11.5C0 8.37582 0.0115002 7.98579 0.0690001 6.75912C0.125534 5.53437 0.319125 4.70062 0.60375 3.9675C0.896033 3.21042 1.29087 2.56929 1.93008 1.93008C2.56928 1.29087 3.21137 0.896999 3.9675 0.60375C4.70062 0.319125 5.53437 0.1265 6.75912 0.0689999C7.98578 0.0143749 8.37582 0 11.5 0Z" fill="#0047FF"/>
</svg>
