<svg width="21" height="21" viewBox="0 0 21 21" fill="none" xmlns="http://www.w3.org/2000/svg">
<path d="M17.8911 17.8955H14.7813V13.0226C14.7813 11.8606 14.7578 10.3652 13.1608 10.3652C11.5395 10.3652 11.2918 11.6297 11.2918 12.9368V17.8955H8.18208V7.87499H11.1693V9.24081H11.2096C11.627 8.45331 12.642 7.62212 14.1583 7.62212C17.3093 7.62212 17.892 9.69593 17.892 12.3952L17.8911 17.8955ZM4.66987 6.50387C3.66887 6.50387 2.86475 5.69362 2.86475 4.697C2.86475 3.70125 3.66975 2.89187 4.66987 2.89187C5.66737 2.89187 6.47587 3.70125 6.47587 4.697C6.47587 5.69362 5.66649 6.50387 4.66987 6.50387ZM6.22912 17.8955H3.11062V7.87499H6.22912V17.8955ZM19.4468 0H1.54962C0.692999 0 0 0.677249 0 1.51287V19.4872C0 20.3235 0.692999 21 1.54962 21H19.4443C20.3 21 21 20.3235 21 19.4872V1.51287C21 0.677249 20.3 0 19.4443 0H19.4468Z" fill="#0047FF"/>
</svg>
