<svg width="28" height="28" viewBox="0 0 28 28" fill="none" xmlns="http://www.w3.org/2000/svg">
<circle cx="13.75" cy="13.75" r="13.75" fill="#0047FF"/>
<path d="M18.1252 17.4377L13.75 21.8129L9.37478 17.4377C6.95841 15.0213 6.95841 11.1036 9.37478 8.68728C11.7911 6.27091 15.7088 6.27091 18.1252 8.68728C20.5416 11.1036 20.5416 15.0213 18.1252 17.4377ZM13.75 15.8125C15.2688 15.8125 16.5 14.5813 16.5 13.0625C16.5 11.5437 15.2688 10.3125 13.75 10.3125C12.2312 10.3125 11 11.5437 11 13.0625C11 14.5813 12.2312 15.8125 13.75 15.8125ZM13.75 14.4375C12.9906 14.4375 12.375 13.8219 12.375 13.0625C12.375 12.3031 12.9906 11.6875 13.75 11.6875C14.5094 11.6875 15.125 12.3031 15.125 13.0625C15.125 13.8219 14.5094 14.4375 13.75 14.4375Z" fill="white"/>
</svg>
