<svg width="172" height="183" viewBox="0 0 172 183" fill="none" xmlns="http://www.w3.org/2000/svg">
<rect x="36" y="38" width="100" height="100" fill="black"/>
<g filter="url(#filter0_d_122_108)">
<path d="M85.72 105.448C82.8827 105.448 80.2693 104.963 77.88 103.992C75.528 102.984 73.4933 101.603 71.776 99.848C70.0587 98.0933 68.7333 96.0587 67.8 93.744C66.8667 91.392 66.4 88.872 66.4 86.184C66.4 83.496 66.8667 80.9947 67.8 78.68C68.7333 76.328 70.0587 74.2747 71.776 72.52C73.4933 70.7653 75.528 69.4027 77.88 68.432C80.2693 67.424 82.8827 66.92 85.72 66.92C88.5947 66.92 91.208 67.424 93.56 68.432C95.912 69.4027 97.9467 70.7653 99.664 72.52C101.381 74.2747 102.707 76.328 103.64 78.68C104.573 80.9947 105.04 83.496 105.04 86.184C105.04 88.872 104.573 91.392 103.64 93.744C102.707 96.0587 101.381 98.0933 99.664 99.848C97.9467 101.603 95.912 102.984 93.56 103.992C91.208 104.963 88.5947 105.448 85.72 105.448ZM92.776 116.032C90.312 116.032 88.24 115.509 86.56 114.464C84.88 113.456 83.6667 112.019 82.92 110.152C82.1733 108.323 81.968 106.157 82.304 103.656H88.8C88.7627 104.739 88.8933 105.579 89.192 106.176C89.4907 106.811 89.9013 107.259 90.424 107.52C90.984 107.781 91.5813 107.912 92.216 107.912C93.3733 107.912 94.4933 107.613 95.576 107.016C96.6587 106.419 97.648 105.672 98.544 104.776C99.44 103.843 100.149 102.909 100.672 101.976L103.472 111.496C102.427 112.541 101.045 113.549 99.328 114.52C97.6107 115.528 95.4267 116.032 92.776 116.032ZM85.72 95.368C87.6613 95.368 89.2667 94.9573 90.536 94.136C91.8427 93.2773 92.8133 92.1573 93.448 90.776C94.0827 89.3573 94.4 87.8267 94.4 86.184C94.4 84.504 94.0827 82.9733 93.448 81.592C92.8133 80.2107 91.8427 79.1093 90.536 78.288C89.2667 77.4293 87.6613 77 85.72 77C83.7787 77 82.1547 77.4293 80.848 78.288C79.5787 79.1093 78.6267 80.2107 77.992 81.592C77.3573 82.9733 77.04 84.504 77.04 86.184C77.04 87.8267 77.3573 89.3573 77.992 90.776C78.6267 92.1573 79.5787 93.2773 80.848 94.136C82.1547 94.9573 83.7787 95.368 85.72 95.368Z" fill="#0047FF"/>
</g>
<defs>
<filter id="filter0_d_122_108" x="0.400024" y="0.919922" width="170.64" height="181.112" filterUnits="userSpaceOnUse" color-interpolation-filters="sRGB">
<feFlood flood-opacity="0" result="BackgroundImageFix"/>
<feColorMatrix in="SourceAlpha" type="matrix" values="0 0 0 0 0 0 0 0 0 0 0 0 0 0 0 0 0 0 127 0" result="hardAlpha"/>
<feOffset/>
<feGaussianBlur stdDeviation="33"/>
<feComposite in2="hardAlpha" operator="out"/>
<feColorMatrix type="matrix" values="0 0 0 0 0 0 0 0 0 0.28 0 0 0 0 1 0 0 0 1 0"/>
<feBlend mode="normal" in2="BackgroundImageFix" result="effect1_dropShadow_122_108"/>
<feBlend mode="normal" in="SourceGraphic" in2="effect1_dropShadow_122_108" result="shape"/>
</filter>
</defs>
</svg>
