<svg width="449" height="382" viewBox="0 0 449 382" fill="none" xmlns="http://www.w3.org/2000/svg">
<g clip-path="url(#clip0_108_393)">
<path d="M263.674 98.0672H250.362C249.684 98.0665 249.033 97.7957 248.553 97.3145C248.073 96.8332 247.803 96.1807 247.803 95.5V82.1506C247.803 81.47 248.073 80.8174 248.553 80.3362C249.033 79.8549 249.684 79.5842 250.362 79.5834H263.674C264.353 79.5842 265.004 79.8549 265.484 80.3362C265.963 80.8174 266.233 81.47 266.234 82.1506V95.5C266.233 96.1807 265.963 96.8332 265.484 97.3145C265.004 97.7957 264.353 98.0665 263.674 98.0672ZM250.362 80.6103C249.955 80.6107 249.565 80.7731 249.277 81.0619C248.989 81.3507 248.827 81.7422 248.827 82.1506V95.5C248.827 95.9084 248.989 96.2999 249.277 96.5887C249.565 96.8775 249.955 97.0399 250.362 97.0404H263.674C264.081 97.0399 264.472 96.8775 264.76 96.5887C265.048 96.2999 265.21 95.9084 265.21 95.5V82.1506C265.21 81.7422 265.048 81.3507 264.76 81.0619C264.472 80.7731 264.081 80.6107 263.674 80.6103H250.362Z" fill="#E6E6E6"/>
<path d="M108.542 18.4839H95.2299C94.5512 18.4831 93.9005 18.2124 93.4206 17.7311C92.9407 17.2498 92.6708 16.5973 92.67 15.9167V2.5672C92.6708 1.88658 92.9407 1.23405 93.4206 0.752777C93.9005 0.271501 94.5512 0.00077866 95.2299 0H108.542C109.22 0.00077866 109.871 0.271501 110.351 0.752777C110.831 1.23405 111.101 1.88658 111.102 2.5672V15.9167C111.101 16.5973 110.831 17.2498 110.351 17.7311C109.871 18.2124 109.22 18.4831 108.542 18.4839ZM95.2299 1.02688C94.8227 1.02733 94.4323 1.18975 94.1443 1.47852C93.8564 1.76729 93.6944 2.15882 93.694 2.5672V15.9167C93.6944 16.325 93.8564 16.7166 94.1443 17.0053C94.4323 17.2941 94.8227 17.4565 95.2299 17.457H108.542C108.949 17.4565 109.339 17.2941 109.627 17.0053C109.915 16.7166 110.077 16.325 110.078 15.9167V2.5672C110.077 2.15882 109.915 1.76729 109.627 1.47852C109.339 1.18975 108.949 1.02733 108.542 1.02688H95.2299Z" fill="#E6E6E6"/>
<path d="M255.482 91.3924H242.171C241.492 91.3917 240.841 91.1209 240.361 90.6397C239.881 90.1584 239.611 89.5059 239.611 88.8252V75.4758C239.611 74.7951 239.881 74.1426 240.361 73.6613C240.841 73.1801 241.492 72.9093 242.171 72.9086H255.482C256.161 72.9093 256.812 73.1801 257.292 73.6613C257.772 74.1426 258.042 74.7951 258.042 75.4758V88.8252C258.042 89.5059 257.772 90.1584 257.292 90.6397C256.812 91.1209 256.161 91.3917 255.482 91.3924ZM242.171 73.9355C241.763 73.9359 241.373 74.0983 241.085 74.3871C240.797 74.6759 240.635 75.0674 240.635 75.4758V88.8252C240.635 89.2336 240.797 89.6251 241.085 89.9139C241.373 90.2027 241.763 90.3651 242.171 90.3656H255.482C255.89 90.3651 256.28 90.2027 256.568 89.9139C256.856 89.6251 257.018 89.2336 257.018 88.8252V75.4758C257.018 75.0674 256.856 74.6759 256.568 74.3871C256.28 74.0983 255.89 73.9359 255.482 73.9355H242.171Z" fill="#E6E6E6"/>
<path d="M24.0635 202.809H10.7518C10.0731 202.808 9.4224 202.538 8.94248 202.056C8.46257 201.575 8.19261 200.923 8.19183 200.242V186.893C8.19261 186.212 8.46257 185.559 8.94248 185.078C9.4224 184.597 10.0731 184.326 10.7518 184.325H24.0635C24.7422 184.326 25.3929 184.597 25.8728 185.078C26.3527 185.559 26.6227 186.212 26.6234 186.893V200.242C26.6227 200.923 26.3527 201.575 25.8728 202.056C25.3929 202.538 24.7422 202.808 24.0635 202.809ZM10.7518 185.352C10.3446 185.353 9.95413 185.515 9.66618 185.804C9.37822 186.093 9.21626 186.484 9.21581 186.893V200.242C9.21626 200.65 9.37822 201.042 9.66618 201.331C9.95413 201.619 10.3446 201.782 10.7518 201.782H24.0635C24.4707 201.782 24.8611 201.619 25.1491 201.331C25.437 201.042 25.599 200.65 25.5995 200.242V186.893C25.599 186.484 25.437 186.093 25.1491 185.804C24.8611 185.515 24.4707 185.353 24.0635 185.352H10.7518Z" fill="#E6E6E6"/>
<path d="M15.8717 196.134H2.55994C1.88124 196.134 1.23056 195.863 0.750648 195.382C0.270733 194.9 0.000776457 194.248 0 193.567V180.218C0.000776457 179.537 0.270733 178.885 0.750648 178.403C1.23056 177.922 1.88124 177.651 2.55994 177.651H15.8717C16.5504 177.651 17.201 177.922 17.6809 178.403C18.1609 178.885 18.4308 179.537 18.4316 180.218V193.567C18.4308 194.248 18.1609 194.9 17.6809 195.382C17.201 195.863 16.5504 196.134 15.8717 196.134ZM2.55994 178.677C2.15272 178.678 1.7623 178.84 1.47434 179.129C1.18639 179.418 1.02442 179.809 1.02398 180.218V193.567C1.02442 193.976 1.18639 194.367 1.47434 194.656C1.7623 194.945 2.15272 195.107 2.55994 195.108H15.8717C16.2789 195.107 16.6693 194.945 16.9573 194.656C17.2452 194.367 17.4072 193.976 17.4076 193.567V180.218C17.4072 179.809 17.2452 179.418 16.9573 179.129C16.6693 178.84 16.2789 178.678 15.8717 178.677H2.55994Z" fill="#E6E6E6"/>
<path d="M47.3228 44.1757H170.515C176.46 44.1757 182.228 46.204 186.871 49.9271C191.513 53.6503 194.755 58.8467 196.062 64.6623L258.309 341.544C258.988 344.564 259 347.697 258.344 350.722C257.688 353.747 256.38 356.592 254.512 359.056C252.644 361.521 250.261 363.546 247.53 364.99C244.799 366.433 241.786 367.26 238.703 367.413L112.06 373.67C105.279 374.005 98.6078 371.854 93.2915 367.619C87.9752 363.384 84.3771 357.354 83.1686 350.654L47.8585 154.895L45.2316 155.648L38.4753 118.544L41.1793 117.866L31.323 63.223C30.9009 60.8826 30.9988 58.4775 31.6098 56.1793C32.2208 53.8811 33.3298 51.7464 34.8578 49.9274C36.3858 48.1083 38.2952 46.6497 40.4498 45.6555C42.6044 44.6613 44.9511 44.156 47.3228 44.1757Z" fill="#3F3D56"/>
<path d="M154.297 50.1445H168.677C172.807 50.1445 176.813 51.5609 180.029 54.1586C183.245 56.7562 185.479 60.3789 186.36 64.4251L246.108 339.048C246.452 340.629 246.451 342.266 246.107 343.847C245.762 345.428 245.081 346.916 244.111 348.209C243.14 349.502 241.903 350.569 240.483 351.339C239.064 352.108 237.495 352.561 235.885 352.667L109.652 360.964C106.09 361.198 102.568 360.109 99.7564 357.904C96.9449 355.7 95.0411 352.535 94.4084 349.012L43.4249 65.1628C43.0949 63.3256 43.171 61.4382 43.6478 59.6337C44.1246 57.8292 44.9905 56.1517 46.1845 54.7194C47.3784 53.2872 48.8712 52.1352 50.5575 51.3447C52.2439 50.5543 54.0827 50.1446 55.9441 50.1446H69.5861C70.9064 50.1446 72.1899 50.5811 73.2379 51.3865C74.2859 52.1919 75.0399 53.3213 75.3832 54.5999C75.6862 55.7286 76.3518 56.7257 77.277 57.4368C78.2022 58.1478 79.3353 58.5332 80.501 58.5332H145.264C147.547 58.5332 149.745 57.6692 151.42 56.1139C153.094 54.5587 154.122 52.4268 154.297 50.1445Z" fill="white"/>
<path d="M53.2468 96.838H190.192L204.781 162.761L66.0465 165.328L53.2468 96.838Z" fill="#0047FF"/>
<path d="M183.292 221.68H215.532L216.556 227.87H184.316L183.292 221.68Z" fill="#0047FF"/>
<path d="M209.524 190.105L72.7896 193.008L72.8032 193.654L209.537 190.75L209.524 190.105Z" fill="#2F2E41"/>
<path d="M213.706 209.14L74.3976 212.367L74.4124 213.012L213.72 209.786L213.706 209.14Z" fill="#2F2E41"/>
<path d="M196.604 287.914H228.844L229.868 294.104H197.628L196.604 287.914Z" fill="#0047FF"/>
<path d="M222.835 256.339L86.1013 259.242L86.1149 259.888L222.849 256.984L222.835 256.339Z" fill="#2F2E41"/>
<path d="M227.017 275.374L87.7093 278.601L87.7241 279.246L227.032 276.02L227.017 275.374Z" fill="#2F2E41"/>
<path d="M315.16 375.432L309.059 375.431L306.157 351.835L315.161 351.835L315.16 375.432Z" fill="#A0616A"/>
<path d="M316.715 381.361L297.045 381.361V381.111C297.046 379.075 297.852 377.122 299.288 375.682C300.724 374.243 302.671 373.434 304.701 373.434L316.716 373.434L316.715 381.361Z" fill="#2F2E41"/>
<path d="M390.942 371.426L385.005 372.828L376.786 350.527L385.55 348.457L390.942 371.426Z" fill="#A0616A"/>
<path d="M393.812 376.84L374.666 381.362L374.609 381.119C374.144 379.137 374.482 377.05 375.551 375.319C376.619 373.587 378.33 372.352 380.306 371.885L392.001 369.124L393.812 376.84Z" fill="#2F2E41"/>
<path d="M313.913 275.906C313.925 274.676 314.288 245.656 322.22 234.684L322.338 234.522L349.981 238.346L349.363 244.437C350.579 245.623 360.143 255.645 362.904 279.379L392.245 358.405L378.605 359.648L338.227 273.381L316.859 367.153H303.336L313.913 275.906Z" fill="#2F2E41"/>
<path d="M318.982 235.754L321.684 221.527C321.155 220.845 318.811 217.565 319.333 213.721C319.673 211.213 321.166 209.014 323.771 207.183L330.775 190.794L330.869 190.739C331.341 190.46 342.493 183.993 348.572 190.094C348.724 190.212 363.693 202.128 357.682 218.203L350.261 240.53L318.982 235.754Z" fill="#CCCCCC"/>
<path d="M309.581 255.001C310.309 254.918 311.011 254.675 311.636 254.29C312.261 253.906 312.794 253.388 313.198 252.774C313.602 252.16 313.867 251.465 313.974 250.737C314.081 250.01 314.027 249.268 313.817 248.563L328.281 238.112L319.623 234.809L307.215 245.24C306.058 245.672 305.099 246.515 304.52 247.609C303.941 248.702 303.783 249.971 304.074 251.174C304.366 252.378 305.087 253.432 306.102 254.137C307.117 254.842 308.355 255.15 309.581 255.001Z" fill="#A0616A"/>
<path d="M312.239 238.095L334.321 220.648L327.756 198.155C327.447 197.09 327.359 195.973 327.499 194.872C327.639 193.772 328.003 192.712 328.57 191.759C329.094 190.86 329.799 190.082 330.641 189.472C331.482 188.863 332.442 188.437 333.457 188.221C337.237 187.419 340.669 189.541 343.655 194.531L343.677 194.576C344.171 195.787 355.675 224.305 346.891 230.403C338.299 236.369 318.374 245.053 318.173 245.141L317.94 245.242L312.239 238.095Z" fill="#CCCCCC"/>
<path d="M341.587 184.163C348.975 184.163 354.964 178.157 354.964 170.748C354.964 163.339 348.975 157.333 341.587 157.333C334.199 157.333 328.21 163.339 328.21 170.748C328.21 178.157 334.199 184.163 341.587 184.163Z" fill="#A0616A"/>
<path d="M362.559 165.959C369.095 165.959 374.393 160.645 374.393 154.091C374.393 147.537 369.095 142.223 362.559 142.223C356.023 142.223 350.725 147.537 350.725 154.091C350.725 160.645 356.023 165.959 362.559 165.959Z" fill="#2F2E41"/>
<path d="M372.767 163.918C371.235 165.029 369.46 165.755 367.591 166.036C365.722 166.318 363.813 166.146 362.024 165.536C360.235 164.926 358.617 163.895 357.307 162.529C355.996 161.164 355.031 159.503 354.491 157.687C354.696 159.315 355.234 160.882 356.073 162.291C356.912 163.699 358.032 164.918 359.365 165.871C360.697 166.823 362.212 167.488 363.813 167.823C365.414 168.159 367.068 168.158 368.669 167.821C370.27 167.483 371.784 166.816 373.115 165.862C374.446 164.909 375.565 163.688 376.402 162.279C377.239 160.869 377.776 159.301 377.978 157.673C378.18 156.045 378.044 154.392 377.577 152.82C377.842 154.932 377.535 157.078 376.689 159.03C375.843 160.983 374.488 162.672 372.767 163.918Z" fill="#2F2E41"/>
<path d="M326.063 163.931C328.129 160.222 328.92 158.673 331.584 156.417C333.939 154.423 336.837 153.837 339.174 155.727C341.939 154.529 345.015 154.257 347.946 154.952C350.877 155.647 353.506 157.272 355.443 159.585C357.38 161.898 358.521 164.775 358.697 167.79C358.873 170.806 358.075 173.797 356.42 176.321C354.766 178.845 352.344 180.766 349.514 181.8C346.684 182.833 343.598 182.924 340.712 182.058C337.827 181.192 335.297 179.416 333.499 176.993C331.7 174.57 330.729 171.631 330.729 168.61C330.731 168.08 330.763 167.55 330.824 167.023C328.793 166.737 328.095 164.218 326.063 163.931Z" fill="#2F2E41"/>
<path d="M448.488 382H253.42C253.285 382 253.154 381.946 253.058 381.85C252.962 381.753 252.908 381.623 252.908 381.487C252.908 381.35 252.962 381.22 253.058 381.124C253.154 381.027 253.285 380.973 253.42 380.973H448.488C448.624 380.973 448.754 381.027 448.85 381.124C448.946 381.22 449 381.35 449 381.487C449 381.623 448.946 381.753 448.85 381.85C448.754 381.946 448.624 382 448.488 382Z" fill="#3F3D56"/>
</g>
<defs>
<clipPath id="clip0_108_393">
<rect width="449" height="382" fill="white"/>
</clipPath>
</defs>
</svg>
