<svg width="28" height="28" viewBox="0 0 28 28" fill="none" xmlns="http://www.w3.org/2000/svg">
<circle cx="13.75" cy="13.75" r="13.75" fill="#0047FF"/>
<path d="M19.9375 16.1012V18.5323C19.9375 18.8933 19.6584 19.1927 19.2985 19.2182C18.9978 19.2394 18.7525 19.25 18.5625 19.25C12.4873 19.25 7.5625 14.3252 7.5625 8.25C7.5625 8.06005 7.57312 7.81472 7.59437 7.51403C7.61982 7.15404 7.91927 6.875 8.28015 6.875H10.7113C10.8878 6.875 11.0356 7.00866 11.0533 7.18424C11.0692 7.34186 11.084 7.46841 11.0977 7.56389C11.2367 8.53512 11.5208 9.45956 11.9272 10.3146C11.9925 10.4518 11.9499 10.6161 11.8263 10.7044L10.3424 11.7644C11.2458 13.8745 12.938 15.5667 15.0481 16.4701L16.1061 14.9888C16.1956 14.8637 16.3618 14.8206 16.5007 14.8866C17.3557 15.2927 18.28 15.5764 19.2511 15.7151C19.346 15.7288 19.4717 15.7434 19.6283 15.7592C19.8038 15.777 19.9375 15.9248 19.9375 16.1012Z" fill="white"/>
</svg>
