<svg width="670" height="430" viewBox="0 0 670 430" fill="none" xmlns="http://www.w3.org/2000/svg">
<g clip-path="url(#clip0_108_421)">
<path d="M626.277 379.933H456.973C450.813 379.927 444.908 377.475 440.553 373.118C436.197 368.76 433.747 362.852 433.74 356.689V89.494C433.747 83.3313 436.197 77.4229 440.553 73.0651C444.908 68.7074 450.813 66.2562 456.973 66.2493H626.277C632.436 66.2562 638.342 68.7074 642.697 73.0651C647.053 77.4229 649.503 83.3313 649.51 89.494V356.689C649.503 362.852 647.053 368.76 642.697 373.118C638.342 377.475 632.436 379.927 626.277 379.933Z" fill="#E6E6E6"/>
<path d="M629.084 80.1196H456.654C454.726 80.122 452.877 80.8894 451.514 82.2535C450.15 83.6176 449.383 85.4671 449.381 87.3962V358.075C449.384 360.004 450.151 361.853 451.514 363.217C452.878 364.581 454.726 365.349 456.654 365.352H629.084C631.013 365.349 632.861 364.582 634.224 363.218C635.588 361.854 636.355 360.004 636.357 358.075V87.3962C636.355 85.4671 635.588 83.6176 634.224 82.2535C632.861 80.8894 631.013 80.122 629.084 80.1196Z" fill="white"/>
<path d="M461.111 66.2492C461.112 65.7777 461.299 65.3258 461.633 64.9924C461.966 64.659 462.418 64.4715 462.889 64.4709H474.975C475.446 64.4709 475.898 64.6583 476.231 64.9918C476.565 65.3253 476.752 65.7776 476.752 66.2492C476.752 66.7208 476.565 67.1731 476.231 67.5066C475.898 67.8401 475.446 68.0274 474.975 68.0274H462.889C462.417 68.0269 461.966 67.8394 461.633 67.506C461.299 67.1726 461.112 66.7206 461.111 66.2492Z" fill="#E6E6E6"/>
<path d="M481.018 66.2492C481.018 65.7777 481.206 65.3258 481.539 64.9924C481.872 64.659 482.324 64.4715 482.795 64.4709H494.881C495.352 64.4709 495.804 64.6583 496.138 64.9918C496.471 65.3253 496.658 65.7776 496.658 66.2492C496.658 66.7208 496.471 67.1731 496.138 67.5066C495.804 67.8401 495.352 68.0274 494.881 68.0274H482.795C482.324 68.0269 481.872 67.8394 481.539 67.506C481.206 67.1726 481.018 66.7206 481.018 66.2492Z" fill="#E6E6E6"/>
<path d="M600.455 66.2492C600.456 65.7777 600.643 65.3258 600.976 64.9924C601.309 64.659 601.761 64.4715 602.232 64.4709H614.318C614.79 64.4709 615.242 64.6583 615.575 64.9918C615.908 65.3253 616.096 65.7776 616.096 66.2492C616.096 66.7208 615.908 67.1731 615.575 67.5066C615.242 67.8401 614.79 68.0274 614.318 68.0274H602.232C601.761 68.0269 601.309 67.8394 600.976 67.506C600.643 67.1726 600.456 66.7207 600.455 66.2492Z" fill="#E6E6E6"/>
<path d="M566.764 359.775C566.764 361.646 566.728 363.51 566.643 365.352H456.654C454.726 365.349 452.878 364.581 451.514 363.217C450.151 361.853 449.384 360.004 449.381 358.075V221.833C482.135 227.127 511.935 243.916 533.444 269.192C554.952 294.468 566.764 326.579 566.764 359.775Z" fill="#F2F2F2"/>
<path d="M563.028 149.679H522.008C520.142 149.679 518.629 151.193 518.629 153.061V157.28C518.629 159.148 520.142 160.662 522.008 160.662H563.028C564.895 160.662 566.408 159.148 566.408 157.28V153.061C566.408 151.193 564.895 149.679 563.028 149.679Z" fill="#0047FF"/>
<path d="M589.1 171.645H495.937C494.071 171.645 492.558 173.159 492.558 175.026V179.246C492.558 181.114 494.071 182.628 495.937 182.628H589.1C590.966 182.628 592.479 181.114 592.479 179.246V175.026C592.479 173.159 590.966 171.645 589.1 171.645Z" fill="#E6E6E6"/>
<path d="M589.1 193.611H495.937C494.071 193.611 492.558 195.125 492.558 196.992V201.212C492.558 203.08 494.071 204.594 495.937 204.594H589.1C590.966 204.594 592.479 203.08 592.479 201.212V196.992C592.479 195.125 590.966 193.611 589.1 193.611Z" fill="#E6E6E6"/>
<path d="M573.147 346.853C572.613 346.877 572.084 346.737 571.632 346.451C571.18 346.165 570.827 345.747 570.621 345.253C570.415 344.759 570.365 344.214 570.479 343.692C570.593 343.169 570.864 342.694 571.257 342.331L571.436 341.62C571.412 341.563 571.388 341.506 571.364 341.449C570.826 340.177 569.925 339.093 568.773 338.333C567.621 337.572 566.27 337.169 564.889 337.174C563.509 337.179 562.161 337.592 561.015 338.361C559.869 339.131 558.975 340.222 558.446 341.497C556.333 346.589 553.643 351.689 552.981 357.072C552.689 359.451 552.812 361.863 553.345 364.201C548.382 353.37 545.805 341.599 545.789 329.684C545.788 326.694 545.954 323.707 546.286 320.736C546.561 318.3 546.942 315.882 547.429 313.48C550.089 300.452 555.8 288.241 564.092 277.85C568.106 275.659 571.352 272.29 573.392 268.196C574.132 266.724 574.654 265.154 574.944 263.532C574.491 263.592 574.031 263.629 573.578 263.659C573.437 263.666 573.289 263.673 573.148 263.681L573.094 263.683C572.597 263.706 572.103 263.584 571.673 263.332C571.243 263.08 570.895 262.709 570.671 262.264C570.447 261.819 570.356 261.319 570.41 260.824C570.463 260.328 570.658 259.859 570.972 259.472C571.168 259.231 571.363 258.99 571.559 258.75C571.856 258.379 572.16 258.015 572.457 257.643C572.492 257.608 572.524 257.571 572.554 257.532C572.895 257.109 573.237 256.693 573.578 256.27C572.955 255.302 572.117 254.491 571.129 253.901C567.707 251.896 562.986 253.284 560.515 256.381C558.036 259.478 557.568 263.822 558.429 267.691C559.276 270.983 560.676 274.107 562.571 276.929C562.385 277.167 562.192 277.397 562.007 277.634C558.615 281.998 555.658 286.684 553.18 291.625C553.783 286.09 553.063 280.491 551.081 275.288C549.072 270.439 545.307 266.355 541.991 262.163C538.008 257.128 529.84 259.326 529.138 265.708C529.132 265.77 529.125 265.832 529.118 265.894C529.611 266.172 530.093 266.467 530.565 266.779C531.157 267.175 531.617 267.741 531.882 268.403C532.148 269.065 532.207 269.791 532.053 270.487C531.899 271.184 531.538 271.817 531.018 272.304C530.498 272.792 529.843 273.111 529.139 273.22L529.067 273.231C529.242 275.007 529.552 276.767 529.994 278.496C531.275 283.323 533.54 287.833 536.644 291.743C539.749 295.653 543.628 298.88 548.038 301.22C548.327 301.368 548.609 301.517 548.899 301.658C546.409 308.718 544.847 316.072 544.253 323.535C543.916 327.938 543.936 332.361 544.312 336.761L544.29 336.605C543.339 331.713 540.731 327.298 536.904 324.107C531.221 319.436 523.192 317.716 517.06 313.961C516.409 313.543 515.651 313.319 514.877 313.318C514.102 313.316 513.344 313.535 512.69 313.951C512.036 314.366 511.515 314.96 511.188 315.662C510.86 316.364 510.74 317.145 510.842 317.913C510.85 317.968 510.858 318.023 510.867 318.077C511.781 318.45 512.671 318.879 513.532 319.362C514.024 319.64 514.506 319.935 514.978 320.247C515.571 320.643 516.03 321.209 516.295 321.871C516.561 322.533 516.621 323.259 516.466 323.955C516.312 324.652 515.952 325.285 515.431 325.773C514.911 326.26 514.256 326.579 513.552 326.688L513.48 326.699C513.428 326.706 513.383 326.714 513.331 326.721C514.893 330.452 517.085 333.886 519.811 336.873C523.178 340.488 527.249 343.377 531.772 345.363C536.295 347.349 541.176 348.389 546.115 348.42H546.123C547.464 354.25 549.406 359.924 551.92 365.352H572.628C572.702 365.122 572.769 364.884 572.836 364.654C570.919 364.774 568.995 364.66 567.106 364.312C568.642 362.426 570.179 360.525 571.715 358.639C571.749 358.603 571.781 358.566 571.811 358.527C572.591 357.562 573.378 356.604 574.157 355.638L574.157 355.637C574.199 352.678 573.859 349.725 573.147 346.853ZM549.433 300.18L549.444 300.166L549.433 300.195V300.18ZM544.846 341.551L544.668 341.15C544.676 340.86 544.676 340.571 544.668 340.274C544.668 340.192 544.653 340.11 544.653 340.029C544.72 340.541 544.78 341.054 544.854 341.566L544.846 341.551Z" fill="#CCCCCC"/>
<path d="M620.465 104.017H465.273C464.937 104.009 464.618 103.871 464.383 103.631C464.148 103.39 464.016 103.068 464.016 102.732C464.016 102.396 464.148 102.073 464.383 101.833C464.618 101.593 464.937 101.454 465.273 101.447H620.465C620.801 101.454 621.121 101.593 621.355 101.833C621.59 102.073 621.722 102.396 621.722 102.732C621.722 103.068 621.59 103.39 621.355 103.631C621.121 103.871 620.801 104.009 620.465 104.017Z" fill="#CACACA"/>
<path d="M473.553 97.7309C475.638 97.7309 477.328 96.0023 477.328 93.8699C477.328 91.7374 475.638 90.0088 473.553 90.0088C471.468 90.0088 469.778 91.7374 469.778 93.8699C469.778 96.0023 471.468 97.7309 473.553 97.7309Z" fill="#3F3D56"/>
<path d="M486.594 97.7309C488.678 97.7309 490.368 96.0023 490.368 93.8699C490.368 91.7374 488.678 90.0088 486.594 90.0088C484.509 90.0088 482.819 91.7374 482.819 93.8699C482.819 96.0023 484.509 97.7309 486.594 97.7309Z" fill="#3F3D56"/>
<path d="M499.634 97.7309C501.719 97.7309 503.409 96.0023 503.409 93.8699C503.409 91.7374 501.719 90.0088 499.634 90.0088C497.549 90.0088 495.859 91.7374 495.859 93.8699C495.859 96.0023 497.549 97.7309 499.634 97.7309Z" fill="#3F3D56"/>
<path d="M614.399 91.5005H605.951C605.784 91.5038 605.625 91.5727 605.507 91.6924C605.39 91.812 605.324 91.9729 605.324 92.1405C605.324 92.308 605.39 92.4689 605.507 92.5886C605.625 92.7083 605.784 92.7771 605.951 92.7804H614.399C614.567 92.7771 614.726 92.7083 614.844 92.5886C614.961 92.4689 615.026 92.308 615.026 92.1405C615.026 91.9729 614.961 91.812 614.844 91.6924C614.726 91.5727 614.567 91.5038 614.399 91.5005Z" fill="#3F3D56"/>
<path d="M614.399 93.9028H605.951C605.784 93.9061 605.625 93.975 605.507 94.0947C605.39 94.2143 605.324 94.3752 605.324 94.5428C605.324 94.7104 605.39 94.8713 605.507 94.9909C605.625 95.1106 605.784 95.1795 605.951 95.1828H614.399C614.567 95.1795 614.726 95.1106 614.844 94.9909C614.961 94.8713 615.026 94.7104 615.026 94.5428C615.026 94.3752 614.961 94.2143 614.844 94.0947C614.726 93.975 614.567 93.9061 614.399 93.9028Z" fill="#3F3D56"/>
<path d="M614.399 96.302H605.951C605.784 96.3053 605.625 96.3742 605.507 96.4938C605.39 96.6135 605.324 96.7744 605.324 96.942C605.324 97.1096 605.39 97.2705 605.507 97.3901C605.625 97.5098 605.784 97.5786 605.951 97.582H614.399C614.567 97.5786 614.726 97.5098 614.844 97.3901C614.961 97.2705 615.026 97.1096 615.026 96.942C615.026 96.7744 614.961 96.6135 614.844 96.4938C614.726 96.3742 614.567 96.3053 614.399 96.302Z" fill="#3F3D56"/>
<path d="M362.6 221.934H272.624C271.351 221.936 270.131 222.444 269.232 223.345C268.333 224.247 267.829 225.469 267.83 226.742V368.952H367.406V226.742C367.407 226.111 367.282 225.485 367.041 224.902C366.8 224.318 366.446 223.788 365.999 223.342C365.553 222.895 365.023 222.541 364.44 222.299C363.857 222.058 363.232 221.934 362.6 221.934ZM317.915 302.736C315.101 302.723 312.406 301.599 310.416 299.608C308.427 297.617 307.303 294.921 307.29 292.106V275.703C307.292 272.885 308.413 270.184 310.405 268.192C312.397 266.201 315.098 265.082 317.915 265.082C320.731 265.082 323.432 266.201 325.424 268.192C327.417 270.184 328.537 272.885 328.539 275.703V292.106C328.526 294.921 327.403 297.617 325.413 299.608C323.423 301.599 320.729 302.723 317.915 302.736Z" fill="#E6E6E6"/>
<path d="M267.521 364.403V378.124C267.523 378.835 267.806 379.516 268.308 380.019C268.811 380.521 269.492 380.805 270.202 380.806H365.034C365.744 380.802 366.424 380.519 366.926 380.016C367.428 379.514 367.711 378.834 367.715 378.124V364.403L267.521 364.403Z" fill="#CCCCCC"/>
<path d="M511.594 0H126.979C123.674 0.0052597 120.507 1.32095 118.17 3.65874C115.833 5.99653 114.518 9.16575 114.513 12.4719V272.145C114.516 275.452 115.831 278.622 118.168 280.96C120.505 283.299 123.674 284.614 126.979 284.617H511.594C514.899 284.614 518.067 283.299 520.405 280.96C522.742 278.622 524.056 275.452 524.059 272.145V12.4719C524.054 9.16574 522.739 5.99653 520.402 3.65874C518.066 1.32095 514.898 0.00525765 511.594 0Z" fill="#E6E6E6"/>
<path d="M508.383 9.0083H130.192C128.423 9.01215 126.727 9.71802 125.477 10.971C124.228 12.2241 123.526 13.9219 123.525 15.6921V268.929C123.529 270.697 124.232 272.392 125.481 273.642C126.731 274.892 128.425 275.596 130.192 275.599H508.383C510.15 275.596 511.844 274.892 513.094 273.642C514.343 272.392 515.047 270.697 515.05 268.929V15.6921C515.049 13.9219 514.348 12.2241 513.098 10.971C511.848 9.71802 510.152 9.01215 508.383 9.0083Z" fill="white"/>
<path d="M515.05 15.6921V268.929C515.047 270.697 514.343 272.392 513.094 273.642C511.844 274.892 510.15 275.596 508.383 275.599H375.025C360.272 261.91 348.169 245.617 339.322 227.536C338.74 226.371 338.185 225.193 337.659 224C329.598 206.5 324.717 187.704 323.245 168.491C323.147 167.313 323.064 166.134 323.009 164.941C322.829 161.891 322.746 158.798 322.746 155.692C322.719 135.034 326.618 114.559 334.235 95.3573C334.693 94.1647 335.178 92.986 335.677 91.8073C351.006 55.7713 378.706 26.4048 413.776 9.0083H508.383C510.152 9.01215 511.848 9.71802 513.098 10.971C514.348 12.2241 515.049 13.9219 515.05 15.6921Z" fill="#0047FF"/>
<path d="M489.372 43.8987H135.5C135.132 43.8908 134.782 43.7391 134.524 43.4759C134.267 43.2127 134.123 42.859 134.123 42.4907C134.123 42.1224 134.267 41.7688 134.524 41.5056C134.782 41.2424 135.132 41.0906 135.5 41.0828H489.372C489.74 41.0906 490.09 41.2424 490.348 41.5056C490.605 41.7688 490.75 42.1224 490.75 42.4907C490.75 42.859 490.605 43.2127 490.348 43.4759C490.09 43.7391 489.74 43.8908 489.372 43.8987Z" fill="#CACACA"/>
<path d="M159.589 33.894C164.143 33.894 167.836 30.1174 167.836 25.4587C167.836 20.8 164.143 17.0234 159.589 17.0234C155.034 17.0234 151.342 20.8 151.342 25.4587C151.342 30.1174 155.034 33.894 159.589 33.894Z" fill="#3F3D56"/>
<path d="M188.079 33.894C192.634 33.894 196.326 30.1174 196.326 25.4587C196.326 20.8 192.634 17.0234 188.079 17.0234C183.524 17.0234 179.832 20.8 179.832 25.4587C179.832 30.1174 183.524 33.894 188.079 33.894Z" fill="#3F3D56"/>
<path d="M216.569 33.894C221.124 33.894 224.816 30.1174 224.816 25.4587C224.816 20.8 221.124 17.0234 216.569 17.0234C212.014 17.0234 208.322 20.8 208.322 25.4587C208.322 30.1174 212.014 33.894 216.569 33.894Z" fill="#3F3D56"/>
<path d="M472.219 19.114H451.981C451.58 19.122 451.197 19.287 450.917 19.5736C450.636 19.8603 450.478 20.2457 450.478 20.6472C450.478 21.0486 450.636 21.4341 450.917 21.7207C451.197 22.0074 451.58 22.1724 451.981 22.1803H472.219C472.62 22.1724 473.002 22.0074 473.283 21.7207C473.564 21.4341 473.721 21.0486 473.721 20.6472C473.721 20.2457 473.564 19.8603 473.283 19.5736C473.002 19.287 472.62 19.122 472.219 19.114Z" fill="#3F3D56"/>
<path d="M472.219 24.8691H451.981C451.58 24.8771 451.197 25.0421 450.917 25.3288C450.636 25.6154 450.478 26.0009 450.478 26.4023C450.478 26.8037 450.636 27.1892 450.917 27.4758C451.197 27.7625 451.58 27.9275 451.981 27.9355H472.219C472.62 27.9275 473.002 27.7625 473.283 27.4758C473.564 27.1892 473.721 26.8037 473.721 26.4023C473.721 26.0009 473.564 25.6154 473.283 25.3288C473.002 25.0421 472.62 24.8771 472.219 24.8691Z" fill="#3F3D56"/>
<path d="M472.219 30.6167H451.981C451.58 30.6246 451.197 30.7897 450.917 31.0763C450.636 31.363 450.478 31.7484 450.478 32.1499C450.478 32.5513 450.636 32.9367 450.917 33.2234C451.197 33.5101 451.58 33.6751 451.981 33.683H472.219C472.62 33.6751 473.002 33.5101 473.283 33.2234C473.564 32.9367 473.721 32.5513 473.721 32.1499C473.721 31.7484 473.564 31.363 473.283 31.0763C473.002 30.7897 472.62 30.6246 472.219 30.6167Z" fill="#3F3D56"/>
<path d="M243.851 126.154H194.366C192.499 126.154 190.986 127.668 190.986 129.536V134.806C190.986 136.674 192.499 138.188 194.366 138.188H243.851C245.718 138.188 247.231 136.674 247.231 134.806V129.536C247.231 127.668 245.718 126.154 243.851 126.154Z" fill="#0047FF"/>
<path d="M272.417 150.221H165.8C163.934 150.221 162.42 151.735 162.42 153.603V158.873C162.42 160.741 163.934 162.255 165.8 162.255H272.417C274.283 162.255 275.796 160.741 275.796 158.873V153.603C275.796 151.735 274.283 150.221 272.417 150.221Z" fill="#E6E6E6"/>
<path d="M272.417 174.289H165.8C163.934 174.289 162.42 175.803 162.42 177.67V182.941C162.42 184.808 163.934 186.322 165.8 186.322H272.417C274.283 186.322 275.796 184.808 275.796 182.941V177.67C275.796 175.803 274.283 174.289 272.417 174.289Z" fill="#E6E6E6"/>
<path d="M171.674 261.08C171.683 266.037 170.8 270.955 169.069 275.599H130.192C128.425 275.596 126.731 274.892 125.481 273.642C124.232 272.392 123.529 270.697 123.525 268.929V220.007C125.698 219.655 127.895 219.479 130.095 219.48C135.555 219.479 140.962 220.555 146.007 222.646C151.052 224.736 155.636 227.8 159.497 231.664C163.358 235.527 166.421 240.113 168.51 245.16C170.599 250.207 171.675 255.617 171.674 261.08Z" fill="#0047FF"/>
<path opacity="0.2" d="M515.396 95.3572V91.8073H455.924V50.6643H452.39V91.8073H384.227V50.6643H380.693V91.8073H335.677C335.178 92.9859 334.693 94.1647 334.235 95.3572H380.693V164.941H323.009C323.064 166.134 323.147 167.312 323.245 168.491H380.693V224H337.659C338.185 225.193 338.74 226.371 339.322 227.536H380.693V274.198H384.227V227.536H452.39V274.198H455.924V227.536H515.396V224H455.924C455.924 216.711 457.359 209.492 460.147 202.758C462.935 196.023 467.022 189.904 472.174 184.749C477.326 179.595 483.442 175.506 490.173 172.716C496.904 169.927 504.119 168.491 511.405 168.491H515.396V164.941H455.924V95.3572H515.396ZM452.39 224H384.227V168.491H452.39V224ZM452.39 164.941H384.227V163.554C384.227 145.467 391.409 128.121 404.192 115.332C416.975 102.542 434.312 95.3572 452.39 95.3572L452.39 164.941Z" fill="black"/>
<path d="M467.512 249.327C466.753 249.362 466.002 249.162 465.361 248.756C464.719 248.349 464.218 247.755 463.925 247.054C463.632 246.353 463.561 245.579 463.723 244.837C463.884 244.094 464.27 243.42 464.828 242.904C464.921 242.533 464.988 242.266 465.082 241.894C465.048 241.814 465.014 241.733 464.981 241.652C461.571 233.517 450.015 233.573 446.634 241.72C443.633 248.951 439.813 256.194 438.872 263.84C438.458 267.219 438.633 270.645 439.389 273.964C432.341 258.582 428.681 241.864 428.658 224.943C428.656 220.697 428.892 216.454 429.364 212.234C429.754 208.775 430.295 205.34 430.987 201.93C434.765 183.427 442.875 166.085 454.652 151.327C460.353 148.216 464.962 143.43 467.861 137.617C468.911 135.527 469.653 133.296 470.064 130.993C469.421 131.078 468.767 131.13 468.124 131.173C467.924 131.183 467.713 131.194 467.513 131.204L467.437 131.208C466.731 131.239 466.03 131.066 465.419 130.708C464.809 130.351 464.314 129.825 463.996 129.193C463.678 128.56 463.549 127.85 463.624 127.146C463.7 126.442 463.978 125.776 464.424 125.226C464.701 124.884 464.979 124.543 465.257 124.201C465.679 123.674 466.111 123.157 466.532 122.63C466.581 122.58 466.627 122.527 466.669 122.471C467.154 121.87 467.639 121.28 468.124 120.679C467.239 119.304 466.049 118.153 464.646 117.314C459.786 114.467 453.082 116.439 449.571 120.837C446.051 125.235 445.387 131.405 446.609 136.899C447.653 141.603 449.93 145.917 452.492 150.019C452.228 150.357 451.954 150.684 451.69 151.021C446.873 157.219 442.674 163.874 439.154 170.892C440.01 163.03 438.989 155.078 436.174 147.689C433.32 140.802 427.973 135.002 423.263 129.049C417.606 121.898 406.007 125.019 405.01 134.084C405.001 134.172 404.991 134.259 404.982 134.347C405.681 134.742 406.366 135.161 407.036 135.604C407.878 136.167 408.53 136.971 408.907 137.91C409.284 138.85 409.369 139.882 409.15 140.871C408.931 141.86 408.419 142.759 407.68 143.452C406.941 144.144 406.011 144.597 405.011 144.751L404.908 144.767C405.157 147.29 405.598 149.789 406.226 152.245C408.045 159.1 411.261 165.505 415.671 171.058C420.08 176.612 425.589 181.194 431.852 184.518C432.263 184.729 432.663 184.94 433.075 185.14C429.538 195.167 427.32 205.611 426.476 216.211C425.998 222.464 426.026 228.746 426.56 234.994L426.528 234.773C425.179 227.824 421.474 221.555 416.04 217.023C407.968 210.389 396.565 207.946 387.857 202.614C383.665 200.047 378.294 203.364 379.025 208.226C379.037 208.304 379.049 208.381 379.061 208.459C380.359 208.988 381.623 209.597 382.845 210.283C383.545 210.678 384.229 211.097 384.899 211.54C385.741 212.103 386.393 212.907 386.77 213.847C387.148 214.787 387.232 215.818 387.013 216.807C386.794 217.796 386.282 218.695 385.543 219.388C384.805 220.08 383.874 220.533 382.874 220.688L382.771 220.703C382.698 220.714 382.634 220.725 382.561 220.735C384.779 226.034 387.892 230.911 391.763 235.152C396.546 240.287 402.326 244.39 408.75 247.21C415.174 250.03 422.106 251.508 429.121 251.553H429.132C431.036 259.832 433.795 267.891 437.365 275.599H466.775C466.88 275.272 466.975 274.935 467.07 274.608C464.348 274.779 461.615 274.616 458.932 274.123C461.114 271.444 463.296 268.744 465.478 266.065C465.527 266.015 465.573 265.962 465.615 265.907C466.722 264.536 467.84 263.175 468.946 261.804L468.947 261.802C469.006 257.6 468.524 253.407 467.513 249.327L467.512 249.327ZM433.833 183.041L433.849 183.02L433.833 183.062V183.041ZM427.319 241.797L427.066 241.227C427.077 240.816 427.077 240.405 427.066 239.983C427.066 239.867 427.045 239.751 427.045 239.635C427.14 240.362 427.224 241.09 427.33 241.818L427.319 241.797Z" fill="#2F2E41"/>
<path d="M205.625 180.507V140.96C205.625 134.889 203.215 129.068 198.924 124.775C194.634 120.483 188.815 118.071 182.748 118.071H99.0054C92.9381 118.071 87.1193 120.483 82.829 124.775C78.5388 129.068 76.1285 134.889 76.1285 140.96V357.917C76.1285 363.988 78.5388 369.809 82.829 374.102C87.1193 378.394 92.9381 380.806 99.0054 380.806H182.748C185.752 380.806 188.727 380.214 191.503 379.064C194.278 377.913 196.8 376.227 198.924 374.102C201.049 371.977 202.734 369.453 203.883 366.676C205.033 363.899 205.625 360.923 205.625 357.917V208.657C206.007 208.657 206.374 208.505 206.645 208.234C206.916 207.963 207.068 207.596 207.068 207.213V181.95C207.068 181.568 206.916 181.2 206.645 180.93C206.374 180.659 206.007 180.507 205.625 180.507Z" fill="#E6E6E6"/>
<path d="M200.756 141.117V357.761C200.757 362.261 198.982 366.579 195.819 369.778C192.655 372.977 188.358 374.797 183.861 374.844C183.799 374.851 183.736 374.853 183.674 374.852H99.5236C94.9932 374.852 90.6485 373.051 87.445 369.846C84.2415 366.641 82.4416 362.294 82.4412 357.761V141.117C82.4416 136.584 84.2415 132.237 87.445 129.032C90.6485 125.827 94.9932 124.026 99.5236 124.026H109.736C109.234 125.259 109.042 126.597 109.179 127.922C109.315 129.247 109.774 130.518 110.517 131.623C111.259 132.729 112.262 133.635 113.436 134.261C114.611 134.888 115.921 135.216 117.253 135.217H165.228C166.558 135.214 167.867 134.884 169.04 134.256C170.212 133.628 171.213 132.722 171.954 131.618C172.696 130.513 173.155 129.243 173.291 127.919C173.428 126.596 173.237 125.259 172.737 124.026H183.674C188.204 124.026 192.549 125.827 195.752 129.032C198.956 132.237 200.756 136.584 200.756 141.117Z" fill="white"/>
<path d="M184.071 368.165C184.071 370.41 184.001 372.636 183.861 374.844C183.799 374.851 183.736 374.854 183.674 374.852H99.5236C94.9932 374.852 90.6485 373.051 87.445 369.846C84.2415 366.641 82.4416 362.294 82.4412 357.761V261.215C109.859 262.598 135.697 274.47 154.612 294.376C173.528 314.282 184.074 340.699 184.071 368.165Z" fill="#F2F2F2"/>
<path d="M76.5913 202.631C76.075 202.63 75.58 202.425 75.215 202.059C74.8499 201.694 74.6445 201.199 74.6439 200.682V187.433C74.6439 186.917 74.8491 186.421 75.2143 186.056C75.5795 185.69 76.0748 185.485 76.5913 185.485C77.1078 185.485 77.6031 185.69 77.9683 186.056C78.3335 186.421 78.5387 186.917 78.5387 187.433V200.682C78.5381 201.199 78.3327 201.694 77.9676 202.059C77.6026 202.425 77.1076 202.63 76.5913 202.631Z" fill="#E6E6E6"/>
<path d="M151.931 192.052H131.266C129.4 192.052 127.886 193.566 127.886 195.434V200.704C127.886 202.572 129.4 204.086 131.266 204.086H151.931C153.798 204.086 155.311 202.572 155.311 200.704V195.434C155.311 193.566 153.798 192.052 151.931 192.052Z" fill="#0047FF"/>
<path d="M180.496 216.119H102.701C100.834 216.119 99.3213 217.633 99.3213 219.501V224.771C99.3213 226.639 100.834 228.153 102.701 228.153H180.496C182.363 228.153 183.876 226.639 183.876 224.771V219.501C183.876 217.633 182.363 216.119 180.496 216.119Z" fill="#E6E6E6"/>
<path d="M180.496 240.187H102.701C100.834 240.187 99.3213 241.7 99.3213 243.568V248.839C99.3213 250.706 100.834 252.22 102.701 252.22H180.496C182.363 252.22 183.876 250.706 183.876 248.839V243.568C183.876 241.7 182.363 240.187 180.496 240.187Z" fill="#E6E6E6"/>
<path d="M161.778 362.523C161.422 362.54 161.069 362.446 160.768 362.255C160.467 362.065 160.232 361.786 160.094 361.457C159.957 361.128 159.924 360.765 160 360.416C160.075 360.068 160.256 359.751 160.518 359.509L160.637 359.036C160.621 358.998 160.606 358.96 160.59 358.922C160.231 358.074 159.63 357.352 158.862 356.845C158.095 356.338 157.194 356.069 156.274 356.073C155.355 356.076 154.456 356.352 153.692 356.864C152.928 357.377 152.333 358.104 151.98 358.954C150.572 362.347 148.779 365.746 148.338 369.334C148.144 370.92 148.226 372.527 148.58 374.085C145.273 366.867 143.556 359.022 143.545 351.081C143.544 349.088 143.655 347.097 143.876 345.117C144.059 343.494 144.313 341.882 144.638 340.282C146.411 331.599 150.216 323.461 155.743 316.536C158.418 315.075 160.581 312.83 161.941 310.102C162.434 309.121 162.782 308.074 162.975 306.993C162.673 307.033 162.367 307.058 162.065 307.078C161.971 307.083 161.872 307.087 161.778 307.092L161.743 307.094C161.411 307.109 161.082 307.028 160.796 306.86C160.509 306.692 160.277 306.445 160.128 306.148C159.978 305.852 159.918 305.518 159.953 305.188C159.989 304.858 160.119 304.545 160.328 304.287C160.459 304.127 160.589 303.966 160.719 303.806C160.917 303.559 161.12 303.316 161.318 303.069C161.341 303.045 161.362 303.02 161.382 302.994C161.61 302.712 161.837 302.435 162.065 302.153C161.65 301.508 161.091 300.968 160.433 300.574C158.152 299.238 155.006 300.163 153.359 302.227C151.707 304.291 151.395 307.186 151.969 309.765C152.533 311.959 153.466 314.041 154.729 315.922C154.605 316.08 154.477 316.234 154.353 316.392C152.092 319.3 150.122 322.423 148.47 325.716C148.872 322.027 148.393 318.296 147.072 314.828C145.733 311.596 143.223 308.875 141.013 306.081C140.429 305.331 139.635 304.77 138.732 304.471C137.83 304.172 136.858 304.147 135.942 304.4C135.025 304.653 134.204 305.172 133.582 305.892C132.96 306.612 132.565 307.5 132.448 308.444C132.443 308.485 132.439 308.526 132.434 308.567C132.763 308.753 133.084 308.949 133.398 309.157C133.793 309.421 134.099 309.798 134.276 310.239C134.453 310.68 134.493 311.165 134.39 311.629C134.288 312.093 134.047 312.515 133.701 312.84C133.354 313.165 132.917 313.377 132.448 313.45L132.4 313.457C132.517 314.641 132.723 315.814 133.018 316.966C133.872 320.183 135.381 323.189 137.45 325.795C139.52 328.401 142.105 330.551 145.043 332.111C145.236 332.21 145.424 332.309 145.617 332.403C143.958 337.108 142.917 342.009 142.521 346.983C142.296 349.918 142.31 352.865 142.56 355.798L142.545 355.694C141.912 352.433 140.174 349.491 137.623 347.364C133.836 344.251 128.484 343.105 124.398 340.602C123.964 340.323 123.459 340.175 122.943 340.173C122.427 340.172 121.921 340.318 121.485 340.595C121.05 340.872 120.702 341.268 120.484 341.736C120.266 342.204 120.186 342.724 120.254 343.236L120.271 343.345C120.88 343.594 121.473 343.88 122.046 344.202C122.375 344.387 122.696 344.584 123.01 344.792C123.405 345.056 123.711 345.433 123.888 345.874C124.065 346.315 124.105 346.799 124.002 347.263C123.9 347.727 123.659 348.149 123.313 348.474C122.966 348.799 122.529 349.012 122.06 349.084L122.012 349.091C121.977 349.096 121.947 349.101 121.913 349.106C122.954 351.593 124.414 353.881 126.231 355.872C128.476 358.281 131.188 360.207 134.203 361.53C137.217 362.854 140.47 363.547 143.762 363.568H143.767C144.661 367.453 145.956 371.235 147.631 374.852H161.432C161.481 374.699 161.526 374.54 161.57 374.387C160.293 374.467 159.01 374.391 157.751 374.159C158.775 372.902 159.799 371.635 160.823 370.378C160.846 370.354 160.868 370.33 160.888 370.304C161.407 369.66 161.931 369.022 162.451 368.379L162.451 368.378C162.479 366.406 162.252 364.438 161.778 362.523ZM145.973 331.418L145.981 331.408L145.973 331.428V331.418ZM142.916 358.99L142.798 358.723C142.803 358.53 142.803 358.337 142.798 358.139C142.798 358.084 142.788 358.03 142.788 357.975C142.832 358.317 142.872 358.658 142.921 359L142.916 358.99Z" fill="#CCCCCC"/>
<path d="M76.2018 176.912C75.6855 176.912 75.1906 176.706 74.8255 176.341C74.4604 175.976 74.2551 175.48 74.2545 174.964V161.715C74.2545 161.198 74.4596 160.703 74.8248 160.337C75.19 159.972 75.6854 159.767 76.2018 159.767C76.7183 159.767 77.2136 159.972 77.5788 160.337C77.944 160.703 78.1492 161.198 78.1492 161.715V174.964C78.1486 175.48 77.9432 175.976 77.5782 176.341C77.2131 176.706 76.7181 176.912 76.2018 176.912Z" fill="#E6E6E6"/>
<path d="M128.002 126.255C128.003 125.738 128.208 125.243 128.573 124.877C128.938 124.512 129.433 124.307 129.949 124.306H143.192C143.708 124.306 144.203 124.511 144.569 124.877C144.934 125.242 145.139 125.738 145.139 126.255C145.139 126.771 144.934 127.267 144.569 127.632C144.203 127.998 143.708 128.203 143.192 128.203H129.949C129.433 128.202 128.938 127.997 128.573 127.632C128.208 127.266 128.003 126.771 128.002 126.255Z" fill="white"/>
<path d="M76.5913 225.232C76.075 225.232 75.58 225.026 75.215 224.661C74.8499 224.296 74.6445 223.8 74.6439 223.284V210.035C74.6439 209.518 74.8491 209.022 75.2143 208.657C75.5795 208.292 76.0748 208.086 76.5913 208.086C77.1078 208.086 77.6031 208.292 77.9683 208.657C78.3335 209.022 78.5387 209.518 78.5387 210.035V223.284C78.5381 223.8 78.3327 224.296 77.9676 224.661C77.6026 225.026 77.1076 225.232 76.5913 225.232Z" fill="#E6E6E6"/>
<path d="M150.592 128.203C151.667 128.203 152.539 127.331 152.539 126.255C152.539 125.178 151.667 124.306 150.592 124.306C149.516 124.306 148.644 125.178 148.644 126.255C148.644 127.331 149.516 128.203 150.592 128.203Z" fill="white"/>
<path d="M669.073 380.801L0.927487 381.04C0.681969 381.04 0.446754 380.941 0.273398 380.768C0.100041 380.594 0.00268555 380.358 0.00268555 380.112C0.00268555 379.867 0.100041 379.631 0.273398 379.457C0.446754 379.283 0.681969 379.185 0.927487 379.184L669.073 378.945C669.318 378.945 669.554 379.043 669.728 379.217C669.902 379.391 670 379.627 670 379.873C670 380.119 669.902 380.355 669.728 380.529C669.554 380.703 669.318 380.801 669.073 380.801Z" fill="#CACACA"/>
<path d="M285.698 176.216L282.184 176.97C282.161 175.499 281.978 174.035 281.638 172.604C281.318 174.356 280.645 176.025 279.659 177.509L259.502 181.815L240.151 161.383C240.121 151.166 245.792 143.403 255.958 143.403C256.571 143.403 257.206 143.432 257.849 143.491C263.342 142.571 268.977 143.82 273.568 146.974C278.16 150.128 281.349 154.941 282.465 160.4C289.671 167.499 287.057 171.673 285.698 176.216Z" fill="#2F2E41"/>
<path d="M295.608 415.169H302.919L306.398 386.952L295.606 386.953L295.608 415.169Z" fill="#FFB6B6"/>
<path d="M293.795 411.56L305.353 410.87V415.824L316.341 423.417C316.884 423.792 317.292 424.331 317.508 424.955C317.723 425.578 317.733 426.255 317.536 426.885C317.34 427.515 316.948 428.065 316.416 428.457C315.885 428.848 315.243 429.059 314.583 429.058H300.823L298.452 424.158L297.526 429.058H292.337L293.795 411.56Z" fill="#2F2E41"/>
<path d="M209.951 407.206L216.311 410.816L233.253 387.993L223.867 382.665L209.951 407.206Z" fill="#FFB6B6"/>
<path d="M210.154 403.172L220.547 408.279L218.103 412.588L223.915 424.617C224.202 425.211 224.292 425.882 224.172 426.53C224.051 427.179 223.726 427.772 223.245 428.223C222.763 428.674 222.15 428.96 221.495 429.037C220.84 429.115 220.178 428.982 219.604 428.656L207.636 421.862L207.991 416.428L204.768 420.234L200.256 417.672L210.154 403.172Z" fill="#2F2E41"/>
<path d="M322.633 181.159C321.697 181.295 320.801 181.635 320.009 182.154C319.218 182.673 318.55 183.36 318.052 184.166C317.554 184.972 317.239 185.877 317.129 186.817C317.019 187.758 317.116 188.711 317.414 189.61L306.226 199.299L310.453 207.538L326.061 193.633C327.537 193.032 328.742 191.911 329.446 190.48C330.151 189.05 330.307 187.411 329.885 185.873C329.462 184.336 328.491 183.007 327.154 182.138C325.818 181.269 324.209 180.921 322.633 181.159Z" fill="#FFB6B6"/>
<path d="M311.367 214.477C307.635 220.132 299.271 225.594 286.857 230.436C286.172 230.71 285.438 230.839 284.701 230.815C283.963 230.791 283.239 230.614 282.574 230.295C277.889 228.162 274.887 220.233 274.605 219.463L265.532 207.218C265.371 207.039 261.128 202.222 261.613 197.485C261.723 196.493 262.046 195.536 262.56 194.68C263.074 193.824 263.767 193.09 264.591 192.527C271.459 187.433 286.853 205.125 288.85 207.478L298.896 201.354L306.216 198.086L312.125 190.892L320.445 199.403L312.962 211.314C312.563 212.43 312.027 213.492 311.367 214.477Z" fill="#2F2E41"/>
<path d="M285.273 236.174C285.273 236.174 306.771 270.435 302.877 274.332C298.982 278.228 292.921 279.252 292.921 279.252L279.508 261.862L285.273 236.174Z" fill="#2F2E41"/>
<path d="M266.266 189.382L276.398 196.24C281.107 199.427 284.649 204.064 286.487 209.448C288.324 214.831 288.357 220.667 286.58 226.071L283.728 234.745L266.266 189.382Z" fill="#2F2E41"/>
<path d="M248.35 282.904L246.995 287.625L242.373 344.55L219.28 387.609L230.301 395.485L261.792 354.526L274.248 313.857L293.808 403.887L308.503 402.836L298.297 278.012L278.93 242.876L248.35 282.904Z" fill="#2F2E41"/>
<path d="M264.543 191.107L278.644 202.637C281.739 205.168 283.968 208.602 285.02 212.46C285.497 214.212 285.724 216.022 285.694 217.838L285.273 242.876L298.203 277.449C298.203 277.449 263.15 290.698 258.476 279.008C253.803 267.317 264.543 191.107 264.543 191.107Z" fill="#0047FF"/>
<path d="M268.76 285.076C251.25 285.076 246.982 285.208 246.706 285.152L246.429 285.096V274.558L250.687 255.627C250.189 249.75 249.023 242 249.129 235.364C249.511 211.379 248.332 187.95 248.332 187.95L257.6 179.391L261.811 182.132L269.621 189.946C278.699 212.299 285.903 233.343 285.948 234.695L286.519 257.965L284.182 267.317C273.61 274.784 283.269 285.076 268.76 285.076Z" fill="#2F2E41"/>
<path opacity="0.2" d="M252.26 208.845L250.131 222.139L264.543 228.086L252.26 208.845Z" fill="black"/>
<path d="M266.778 176.897C274.57 176.897 280.888 170.577 280.888 162.78C280.888 154.984 274.57 148.663 266.778 148.663C258.985 148.663 252.668 154.984 252.668 162.78C252.668 170.577 258.985 176.897 266.778 176.897Z" fill="#FFB6B6"/>
<path opacity="0.2" d="M243.136 234.408C246.891 238.758 251.985 241.737 257.616 242.876C263.248 244.015 269.098 243.249 274.247 240.7L277.318 239.179L243.136 234.408Z" fill="black"/>
<path d="M292.234 231.158C291.605 230.451 290.828 229.89 289.958 229.515C289.089 229.141 288.148 228.961 287.202 228.99C286.256 229.018 285.327 229.254 284.482 229.681C283.637 230.107 282.895 230.714 282.31 231.458L268.063 227.457L263.521 235.525L283.719 240.893C285.034 241.795 286.633 242.182 288.215 241.983C289.796 241.783 291.249 241.01 292.299 239.81C293.348 238.61 293.921 237.066 293.909 235.472C293.897 233.877 293.301 232.342 292.234 231.158Z" fill="#FFB6B6"/>
<path d="M258.238 240.112C251.465 240.113 242.3 236.14 231.421 228.444C230.814 228.024 230.302 227.482 229.916 226.853C229.53 226.224 229.278 225.522 229.177 224.791C228.375 219.705 233.334 212.828 233.82 212.169L239.033 197.846C239.093 197.613 240.773 191.416 244.991 189.211C245.879 188.755 246.855 188.497 247.852 188.455C248.849 188.412 249.844 188.586 250.767 188.964C258.801 191.891 252.528 214.493 251.667 217.456L262.31 222.469L269.069 226.78L278.326 227.748L275.813 239.385L261.755 239.701C260.604 239.983 259.423 240.121 258.238 240.112Z" fill="#2F2E41"/>
<path d="M283.697 153.493C282.568 154.963 278.677 156.263 274.055 157.312C274.062 157.216 274.062 157.12 274.062 157.024C274.039 155.554 273.856 154.09 273.516 152.659C273.196 154.411 272.523 156.08 271.537 157.564C271.463 157.674 271.39 157.785 271.308 157.896C267.343 158.679 263.15 159.285 259.864 159.691C262.123 167.832 270.784 174.51 269.846 179.459L244.47 184.645C244.626 182.588 244.462 180.52 243.983 178.513C243.497 181.161 242.214 183.597 240.306 185.494L238.15 185.937L237.508 182.768C231.941 169.39 239.7 155.695 252.414 148.61C254.681 145.211 258.201 142.847 262.205 142.036L265.372 141.386C267.37 140.977 269.429 140.966 271.431 141.353C273.433 141.74 275.339 142.518 277.041 143.642C278.743 144.766 280.207 146.215 281.349 147.905C282.491 149.596 283.289 151.494 283.697 153.493Z" fill="#2F2E41"/>
<path d="M344.317 409.421L344.693 400.98C348.604 398.888 352.968 397.783 357.403 397.76C351.298 402.754 352.061 412.38 347.923 419.095C346.616 421.18 344.857 422.943 342.776 424.255C340.695 425.567 338.346 426.393 335.903 426.673L330.794 429.803C330.093 425.893 330.248 421.878 331.247 418.033C332.247 414.189 334.067 410.607 336.583 407.534C338.012 405.825 339.65 404.302 341.459 403.002C342.683 406.229 344.317 409.421 344.317 409.421Z" fill="#F2F2F2"/>
<path d="M356.702 430H178.804C178.559 429.999 178.323 429.901 178.15 429.727C177.977 429.553 177.879 429.318 177.879 429.072C177.879 428.826 177.977 428.591 178.15 428.417C178.323 428.243 178.559 428.145 178.804 428.144H356.702C356.824 428.144 356.945 428.167 357.058 428.214C357.171 428.26 357.274 428.329 357.36 428.415C357.446 428.501 357.515 428.603 357.562 428.716C357.608 428.829 357.633 428.95 357.633 429.072C357.633 429.194 357.608 429.315 357.562 429.428C357.515 429.54 357.446 429.643 357.36 429.729C357.274 429.815 357.171 429.884 357.058 429.93C356.945 429.977 356.824 430 356.702 430Z" fill="#CACACA"/>
</g>
<defs>
<clipPath id="clip0_108_421">
<rect width="670" height="430" fill="white"/>
</clipPath>
</defs>
</svg>
