<svg width="172" height="125" viewBox="0 0 172 125" fill="none" xmlns="http://www.w3.org/2000/svg">
<g filter="url(#filter0_d_75_783)">
<path d="M85.72 79.448C82.8827 79.448 80.2693 78.9627 77.88 77.992C75.528 76.984 73.4933 75.6027 71.776 73.848C70.0587 72.0933 68.7333 70.0587 67.8 67.744C66.8667 65.392 66.4 62.872 66.4 60.184C66.4 57.496 66.8667 54.9947 67.8 52.68C68.7333 50.328 70.0587 48.2747 71.776 46.52C73.4933 44.7653 75.528 43.4027 77.88 42.432C80.2693 41.424 82.8827 40.92 85.72 40.92C88.5947 40.92 91.208 41.424 93.56 42.432C95.912 43.4027 97.9467 44.7653 99.664 46.52C101.381 48.2747 102.707 50.328 103.64 52.68C104.573 54.9947 105.04 57.496 105.04 60.184C105.04 62.872 104.573 65.392 103.64 67.744C102.707 70.0587 101.381 72.0933 99.664 73.848C97.9467 75.6027 95.912 76.984 93.56 77.992C91.208 78.9627 88.5947 79.448 85.72 79.448ZM92.776 90.032C90.312 90.032 88.24 89.5093 86.56 88.464C84.88 87.456 83.6667 86.0187 82.92 84.152C82.1733 82.3227 81.968 80.1573 82.304 77.656H88.8C88.7627 78.7387 88.8933 79.5787 89.192 80.176C89.4907 80.8107 89.9013 81.2587 90.424 81.52C90.984 81.7813 91.5813 81.912 92.216 81.912C93.3733 81.912 94.4933 81.6133 95.576 81.016C96.6587 80.4187 97.648 79.672 98.544 78.776C99.44 77.8427 100.149 76.9093 100.672 75.976L103.472 85.496C102.427 86.5413 101.045 87.5493 99.328 88.52C97.6107 89.528 95.4267 90.032 92.776 90.032ZM85.72 69.368C87.6613 69.368 89.2667 68.9573 90.536 68.136C91.8427 67.2773 92.8133 66.1573 93.448 64.776C94.0827 63.3573 94.4 61.8267 94.4 60.184C94.4 58.504 94.0827 56.9733 93.448 55.592C92.8133 54.2107 91.8427 53.1093 90.536 52.288C89.2667 51.4293 87.6613 51 85.72 51C83.7787 51 82.1547 51.4293 80.848 52.288C79.5787 53.1093 78.6267 54.2107 77.992 55.592C77.3573 56.9733 77.04 58.504 77.04 60.184C77.04 61.8267 77.3573 63.3573 77.992 64.776C78.6267 66.1573 79.5787 67.2773 80.848 68.136C82.1547 68.9573 83.7787 69.368 85.72 69.368Z" fill="#0047FF"/>
</g>
<defs>
<filter id="filter0_d_75_783" x="0.400024" y="-25.08" width="170.64" height="181.112" filterUnits="userSpaceOnUse" color-interpolation-filters="sRGB">
<feFlood flood-opacity="0" result="BackgroundImageFix"/>
<feColorMatrix in="SourceAlpha" type="matrix" values="0 0 0 0 0 0 0 0 0 0 0 0 0 0 0 0 0 0 127 0" result="hardAlpha"/>
<feOffset/>
<feGaussianBlur stdDeviation="33"/>
<feComposite in2="hardAlpha" operator="out"/>
<feColorMatrix type="matrix" values="0 0 0 0 0 0 0 0 0 0.28 0 0 0 0 1 0 0 0 1 0"/>
<feBlend mode="normal" in2="BackgroundImageFix" result="effect1_dropShadow_75_783"/>
<feBlend mode="normal" in="SourceGraphic" in2="effect1_dropShadow_75_783" result="shape"/>
</filter>
</defs>
</svg>
