<svg width="326" height="941" viewBox="0 0 326 941" fill="none" xmlns="http://www.w3.org/2000/svg">
<g clip-path="url(#clip0_75_336)">
<path d="M40.3084 628.827H174.691C162.054 659.132 138.5 682 109 682C75 682 52.9459 659.132 40.3084 628.827ZM222.625 529.144L261 572.665V609.64H-46V572.665L-7.625 529.144V417.766C-7.625 350.931 40.4286 294.072 107.5 273C174.572 294.072 222.625 350.931 222.625 417.766V529.144ZM107.5 456.14C128.695 456.14 145.875 438.959 145.875 417.766C145.875 396.572 128.695 379.391 107.5 379.391C86.3055 379.391 69.125 396.572 69.125 417.766C69.125 438.959 86.3055 456.14 107.5 456.14Z" fill="white"/>
<path d="M148.36 669L180.462 934.697C180.749 937.069 178.905 939.162 176.516 939.177L48.373 939.973C46.0235 939.987 44.1674 937.983 44.3618 935.642L66.5 669H148.36Z" fill="url(#paint0_linear_75_336)"/>
</g>
<defs>
<linearGradient id="paint0_linear_75_336" x1="109.785" y1="666.481" x2="109.801" y2="932.355" gradientUnits="userSpaceOnUse">
<stop offset="0.112342" stop-color="#0047FF"/>
<stop offset="1" stop-color="#0047FF" stop-opacity="0"/>
</linearGradient>
<clipPath id="clip0_75_336">
<rect width="326" height="941" fill="white"/>
</clipPath>
</defs>
</svg>
