<svg width="111" height="43" viewBox="0 0 111 43" fill="none" xmlns="http://www.w3.org/2000/svg">
<path d="M76.4886 0.759015C74.6676 0.672296 73.1893 0.935163 73.1893 0.935163L87.0643 21.7477L73.1893 42.2146C73.1893 42.2146 79.4317 43.2553 82.2067 40.4803C83.941 38.7459 84.9817 37.0102 90.8785 28.6852C91.9192 26.9508 92.9652 28.6852 92.9652 28.6852C98.1683 35.6227 99.5545 38.399 101.983 40.4803C105.104 42.9084 111 42.2146 111 42.2146L97.125 21.7477L110.654 0.935163C110.654 0.935163 104.758 -0.105462 101.983 2.66954C99.9014 4.75079 97.8215 7.52579 92.9652 14.8102C92.9652 14.8102 91.9192 16.5445 90.8785 14.8102C86.0223 7.87266 83.9424 4.75079 81.8611 2.66954C80.4736 1.28204 78.3097 0.845734 76.4886 0.759015ZM1.4566 0.901288C0.966101 0.878254 0.476953 0.891804 0 0.935163L11.0973 42.5602C11.0973 42.5602 14.566 42.5629 16.3004 41.8691C18.7285 40.8285 19.7705 39.7838 21.158 34.2338C22.5455 29.3776 26.0143 14.4619 26.3611 13.4213C27.0549 10.9932 28.0996 10.9932 28.7933 13.4213C29.1402 14.4619 32.609 29.0307 33.9965 34.2338C35.384 39.7838 36.4192 40.8285 38.8473 41.8691C40.9285 42.9097 44.4027 42.5602 44.4027 42.5602L55.5 0.935163C51.6844 0.588288 47.175 2.66683 46.8281 6.82933L40.934 29.0307L36.0764 10.9959C35.0357 5.79277 32.6049 3.01506 28.0955 3.01506C23.5861 3.01506 21.509 5.44589 20.1215 10.9959L15.2639 29.0307L9.36292 6.82933C8.45237 2.88362 4.89012 1.06253 1.4566 0.901288ZM67.9861 0.935163C67.9861 0.935163 65.2152 0.932452 63.4808 1.6262C61.3996 2.66683 60.7031 4.74943 60.7031 9.95256C60.7031 9.95256 61.7465 8.91193 63.4808 8.21818C68.3371 6.48381 67.9861 3.01641 67.9861 0.935163ZM67.6406 7.87266V8.13688C67.725 7.98594 67.7451 7.87266 67.6406 7.87266ZM67.6406 8.13688C67.4449 8.487 66.7726 9.12228 65.5607 9.60704C64.5201 10.3008 63.4781 10.649 62.4375 10.9959C60.0094 12.0365 60.3576 13.4213 60.3576 16.8901V42.5602C60.3576 42.5602 63.1285 42.9097 64.8629 41.8691C67.291 40.8285 67.6406 39.4369 67.6406 34.2338V8.13688Z" fill="white" fill-opacity="0.6"/>
</svg>
